# File created by Blade
# Date/Time:  Tue Jan 27 19:00:46 2015
#---------------------------------------------------------
:version 1.10
:name HOM
:units
  mass 1.0
  length 1.000000
  angle deg
:documentation
     Acclaim Skeleton File
:root
   axis xyz
   order TX TY TZ RX RY RZ
   position 0.000000 0.000000 0.000000
   orientation 0 0 0
:bonedata
   begin
      id 1
      name Spine_dum
      direction 0.000000 1.000000 0.000000
      length 5.195262
      axis 0.0 0.0 0.0 xyz
   end
   begin
      id 2
      name LeftUpLeg_dum
      direction 1.000000 0.000000 0.000000
      length 3.351363
      axis 0.0 0.0 0.0 xyz
   end
   begin
      id 3
      name RightUpLeg_dum
      direction -1.000000 0.000000 0.000000
      length 3.351363
      axis 0.0 0.0 0.0 xyz
   end
   begin
      id 4
      name Spine
      direction 0.000000 1.000000 0.000000
      length 0.000000
      axis 0.0 0.0 0.0 xyz
      dof rx ry rz
   end
   begin
      id 5
      name Spine_dum1
      direction 0.000000 1.000000 0.000000
      length 15.653875
      axis 0.0 0.0 0.0 xyz
   end
   begin
      id 6
      name Spine_dum2
      direction 0.000000 1.000000 0.000000
      length 10.329768
      axis 0.0 0.0 0.0 xyz
   end
   begin
      id 7
      name Spine_dum3
      direction 0.000000 1.000000 0.000000
      length 10.329768
      axis 0.0 0.0 0.0 xyz
   end
   begin
      id 8
      name Head
      direction 0.000000 1.000000 0.000000
      length 4.527550
      axis 0.0 0.0 0.0 xyz
      dof rx ry rz
   end
   begin
      id 9
      name LeftShoulder
      direction 1.000000 0.000000 0.000000
      length 6.996006
      axis 0.0 0.0 -90.0 xyz
      dof rx ry rz
   end
   begin
      id 10
      name LeftArm
      direction 1.000000 0.000000 0.000000
      length 10.209302
      axis 0.0 0.0 -90.0 xyz
      dof rx ry rz
   end
   begin
      id 11
      name LeftForeArm
      direction 1.000000 0.000000 0.000000
      length 8.563163
      axis 0.0 0.0 -90.0 xyz
      dof ry rz rx
   end
   begin
      id 12
      name LeftHand
      direction 0.000000 0.000000 0.000000
      length 0.000000
      axis 0.0 0.0 -90.0 xyz
      dof rx ry rz
   end
   begin
      id 13
      name LeftHand_dum1
      direction 0.000000 0.000000 0.000000
      length 0.000000
      axis 0.0 0.0 -90.0 xyz
   end
   begin
      id 14
      name LeftHand_dum2
      direction 1.000000 0.000000 0.000000
      length 3.937000
      axis 0.0 0.0 -90.0 xyz
   end
   begin
      id 15
      name LeftHandThumb1
      direction 0.000000 0.000000 1.000000
      length 3.937000
      axis 0.0 0.0 -90.0 xyz
      dof rx rz ry
   end
   begin
      id 16
      name RightShoulder
      direction -1.000000 0.000000 0.000000
      length 6.996006
      axis 0.0 0.0 90.0 xyz
      dof rx ry rz
   end
   begin
      id 17
      name RightArm
      direction -1.000000 0.000000 0.000000
      length 10.209302
      axis 0.0 0.0 90.0 xyz
      dof rx ry rz
   end
   begin
      id 18
      name RightForeArm
      direction -1.000000 0.000000 0.000000
      length 8.563163
      axis 0.0 0.0 90.0 xyz
      dof ry rz rx
   end
   begin
      id 19
      name RightHand
      direction 0.000000 0.000000 0.000000
      length 0.000000
      axis 0.0 0.0 90.0 xyz
      dof rx ry rz
   end
   begin
      id 20
      name RightHand_dum1
      direction 0.000000 0.000000 0.000000
      length 0.000000
      axis 0.0 0.0 90.0 xyz
   end
   begin
      id 21
      name RightHand_dum2
      direction -1.000000 0.000000 0.000000
      length 3.937000
      axis 0.0 0.0 90.0 xyz
   end
   begin
      id 22
      name RightHandThumb1
      direction 0.000000 0.000000 1.000000
      length 3.937000
      axis 0.0 0.0 90.0 xyz
      dof rx rz ry
   end
   begin
      id 23
      name LeftUpLeg
      direction 0.000000 -1.000000 0.000000
      length 16.346831
      axis 0.0 0.0 0.0 xyz
      dof rx ry rz
   end
   begin
      id 24
      name LeftLeg
      direction 0.000000 -1.000000 0.000000
      length 13.959795
      axis 0.0 0.0 0.0 xyz
      dof rx ry rz
   end
   begin
      id 25
      name LeftFoot
      direction 0.000000 -0.258819 0.965926
      length 5.165550
      axis 15.0 0.0 0.0 xyz
      dof rx ry rz
   end
   begin
      id 26
      name LeftToeBase
      direction 0.000000 0.000000 1.000000
      length 2.952750
      axis 0.0 0.0 0.0 xyz
      dof rx ry rz
   end
   begin
      id 27
      name RightUpLeg
      direction 0.000000 -1.000000 0.000000
      length 16.346831
      axis 0.0 0.0 0.0 xyz
      dof rx ry rz
   end
   begin
      id 28
      name RightLeg
      direction 0.000000 -1.000000 0.000000
      length 13.959795
      axis 0.0 0.0 0.0 xyz
      dof rx ry rz
   end
   begin
      id 29
      name RightFoot
      direction 0.000000 -0.258819 0.965926
      length 5.165550
      axis 15.0 0.0 0.0 xyz
      dof rx ry rz
   end
   begin
      id 30
      name RightToeBase
      direction 0.000000 0.000000 1.000000
      length 2.952750
      axis 0.0 0.0 0.0 xyz
      dof rx ry rz
   end
:hierarchy
   begin
      root Spine_dum LeftUpLeg_dum RightUpLeg_dum
      Spine_dum Spine
      LeftUpLeg_dum LeftUpLeg
      RightUpLeg_dum RightUpLeg
      Spine Spine_dum1 Spine_dum2 Spine_dum3
      Spine_dum1 Head
      Spine_dum2 LeftShoulder
      Spine_dum3 RightShoulder
      LeftShoulder LeftArm
      LeftArm LeftForeArm
      LeftForeArm LeftHand
      LeftHand LeftHand_dum1 LeftHand_dum2
      LeftHand_dum1 LeftHandThumb1
      RightShoulder RightArm
      RightArm RightForeArm
      RightForeArm RightHand
      RightHand RightHand_dum1 RightHand_dum2
      RightHand_dum1 RightHandThumb1
      LeftUpLeg LeftLeg
      LeftLeg LeftFoot
      LeftFoot LeftToeBase
      RightUpLeg RightLeg
      RightLeg RightFoot
      RightFoot RightToeBase
   end

# File created by Blade
# Date/Time:  Tue Jan 27 19:00:36 2015
# Frame Rate: 120.000 fps
#------------------------------------------------------
:FULLY-SPECIFIED
:DEGREES
134
root -6.547038 31.769735 -5.529537 4.061706 5.064940 2.590903
Spine -3.093854 -5.794833 -2.544614
Head 11.168597 9.872000 -1.938570
LeftShoulder -17.286459 15.011849 19.844110
LeftArm 16.475686 -37.689444 -42.118631
LeftForeArm -29.387358 -0.000000 18.914856
LeftHand -9.234672 0.000000 18.584740
LeftHandThumb1 -26.253704 0.000000 33.147579
RightShoulder -11.936811 -1.524701 -22.484453
RightArm 11.699592 -6.451161 54.991188
RightForeArm -23.317697 -0.000000 10.971721
RightHand -14.908359 0.000000 14.041721
RightHandThumb1 -24.326973 -0.000000 -32.862282
LeftUpLeg -2.648554 -2.938013 -1.847711
LeftLeg 6.433197 -0.000000 -0.000000
LeftFoot -21.124230 19.782381 -20.775753
LeftToeBase 9.515682 -0.000000 -0.000000
RightUpLeg 1.185348 -5.159999 -0.344110
RightLeg -1.841279 -0.000000 0.000000
RightFoot -16.347024 -16.036107 8.034682
RightToeBase 6.462525 -0.000000 -0.000000
135
root -6.557052 31.769494 -5.528424 4.088893 5.085283 2.580799
Spine -3.104260 -5.772082 -2.508600
Head 11.210221 9.847665 -2.040043
LeftShoulder -17.264096 15.055363 19.774399
LeftArm 16.490689 -37.092720 -42.145611
LeftForeArm -29.636085 -0.000000 18.559712
LeftHand -9.220458 0.000000 18.158454
LeftHandThumb1 -26.253704 0.000000 33.147579
RightShoulder -11.930361 -1.694149 -22.226551
RightArm 11.421672 -6.424054 55.718854
RightForeArm -23.350263 -0.000000 11.496751
RightHand -15.125425 -0.000000 14.111728
RightHandThumb1 -24.326973 -0.000000 -32.862282
LeftUpLeg -2.723168 -2.959823 -1.802926
LeftLeg 6.533653 -0.000000 -0.000000
LeftFoot -21.066505 19.759605 -20.615771
LeftToeBase 9.388510 -0.000000 -0.000000
RightUpLeg 1.152060 -5.178750 -0.308366
RightLeg -1.824144 -0.000000 0.000000
RightFoot -16.348952 -16.056510 8.005163
RightToeBase 6.417614 -0.000000 -0.000000
136
root -6.564298 31.768640 -5.521975 4.099367 5.099521 2.580189
Spine -3.108474 -5.749848 -2.497524
Head 11.253466 9.823830 -2.052268
LeftShoulder -17.241255 15.092414 19.765392
LeftArm 16.508685 -36.669138 -42.362814
LeftForeArm -29.693943 -0.000000 18.334427
LeftHand -9.272728 -0.000000 17.806916
LeftHandThumb1 -26.253704 0.000000 33.147579
RightShoulder -11.963958 -1.839989 -21.945962
RightArm 11.194620 -6.578295 56.405321
RightForeArm -23.293104 -0.000000 11.938393
RightHand -15.167576 0.000000 13.875240
RightHandThumb1 -24.326973 -0.000000 -32.862282
LeftUpLeg -2.756054 -2.958043 -1.785932
LeftLeg 6.605765 -0.000000 -0.000000
LeftFoot -21.101300 19.723346 -20.633703
LeftToeBase 9.360169 -0.000000 -0.000000
RightUpLeg 1.170970 -5.142849 -0.294093
RightLeg -1.860165 -0.000000 0.000000
RightFoot -16.349255 -16.097682 8.010701
RightToeBase 6.428598 -0.000000 -0.000000
137
root -6.577134 31.767982 -5.522547 4.146947 5.113569 2.572773
Spine -3.138608 -5.737818 -2.491093
Head 11.282965 9.818134 -2.061339
LeftShoulder -17.243620 15.169807 19.696837
LeftArm 16.553406 -36.159707 -42.514464
LeftForeArm -29.967031 -0.000000 18.099589
LeftHand -9.027914 -0.000000 17.676461
LeftHandThumb1 -26.253704 0.000000 33.147579
RightShoulder -11.995355 -1.997956 -21.651405
RightArm 10.969142 -6.719227 57.135273
RightForeArm -23.449604 -0.000000 12.424535
RightHand -15.236987 -0.000000 13.628213
RightHandThumb1 -24.326973 -0.000000 -32.862282
LeftUpLeg -2.859536 -2.931476 -1.756572
LeftLeg 6.722364 -0.000000 -0.000000
LeftFoot -21.181363 19.655051 -20.754177
LeftToeBase 9.419674 -0.000000 -0.000000
RightUpLeg 1.112349 -5.134006 -0.255764
RightLeg -1.840840 -0.000000 0.000000
RightFoot -16.359253 -16.130278 7.990070
RightToeBase 6.404997 -0.000000 -0.000000
138
root -6.590514 31.767427 -5.518709 4.171550 5.136649 2.540333
Spine -3.148972 -5.744409 -2.456786
Head 11.295068 9.820366 -2.062727
LeftShoulder -17.266761 15.259505 19.636887
LeftArm 16.621680 -35.949779 -42.863957
LeftForeArm -30.268670 -0.000000 18.117686
LeftHand -8.861425 -0.000000 17.216478
LeftHandThumb1 -26.253704 0.000000 33.147579
RightShoulder -12.042087 -2.151158 -21.325021
RightArm 10.764311 -6.772674 57.869129
RightForeArm -23.720379 0.000000 12.928253
RightHand -15.312847 -0.000000 13.402305
RightHandThumb1 -24.326973 -0.000000 -32.862282
LeftUpLeg -2.930991 -2.877702 -1.694470
LeftLeg 6.811670 -0.000000 -0.000000
LeftFoot -21.254672 19.541716 -20.834346
LeftToeBase 9.501301 -0.000000 -0.000000
RightUpLeg 1.157425 -4.902418 -0.200462
RightLeg -1.972505 -0.000000 0.000000
RightFoot -16.310847 -16.339027 8.054571
RightToeBase 6.401730 -0.000000 -0.000000
139
root -6.590604 31.766729 -5.508725 4.170423 5.166196 2.583498
Spine -3.143674 -5.750159 -2.469403
Head 11.332557 9.823507 -2.108518
LeftShoulder -17.282117 15.343659 19.500055
LeftArm 16.744649 -36.064862 -43.303241
LeftForeArm -30.259930 0.000000 18.151748
LeftHand -8.522104 -0.000000 17.096001
LeftHandThumb1 -26.253704 0.000000 33.147579
RightShoulder -12.106316 -2.321730 -21.029964
RightArm 10.574933 -7.000344 58.570869
RightForeArm -23.779684 0.000000 13.425190
RightHand -15.351638 -0.000000 13.202396
RightHandThumb1 -24.326973 -0.000000 -32.862282
LeftUpLeg -2.945495 -2.902053 -1.745701
LeftLeg 6.902716 -0.000000 -0.000000
LeftFoot -21.345872 19.473502 -21.079945
LeftToeBase 9.432142 -0.000000 -0.000000
RightUpLeg 1.150840 -5.107888 -0.239867
RightLeg -1.903021 -0.000000 0.000000
RightFoot -16.362768 -16.173211 7.993133
RightToeBase 6.416608 -0.000000 -0.000000
140
root -6.606671 31.766065 -5.508966 4.228699 5.194039 2.555747
Spine -3.177348 -5.754384 -2.452087
Head 11.333204 9.791007 -2.059734
LeftShoulder -17.239310 15.294537 19.373862
LeftArm 16.606984 -36.305344 -43.595921
LeftForeArm -30.355374 -0.000000 18.473982
LeftHand -8.167320 -0.000000 17.525900
LeftHandThumb1 -26.253704 0.000000 33.147579
RightShoulder -12.201042 -2.541314 -20.697311
RightArm 10.483620 -7.457266 59.261595
RightForeArm -23.743456 -0.000000 13.877061
RightHand -15.470186 0.000000 12.843196
RightHandThumb1 -24.326973 -0.000000 -32.862282
LeftUpLeg -3.075700 -2.880854 -1.681309
LeftLeg 7.044946 -0.000000 -0.000000
LeftFoot -21.406925 19.383698 -21.142286
LeftToeBase 9.399299 -0.000000 -0.000000
RightUpLeg 1.134028 -4.898588 -0.178722
RightLeg -1.990890 -0.000000 0.000000
RightFoot -16.338281 -16.378045 8.045224
RightToeBase 6.423539 -0.000000 -0.000000
141
root -6.617854 31.765548 -5.504730 4.272646 5.223380 2.555029
Spine -3.207223 -5.772279 -2.462054
Head 11.369310 9.767073 -2.008098
LeftShoulder -17.171393 15.149717 19.316569
LeftArm 16.332528 -36.802398 -43.999330
LeftForeArm -30.302181 -0.000000 19.099462
LeftHand -7.722933 -0.000000 17.983331
LeftHandThumb1 -26.253704 0.000000 33.147579
RightShoulder -12.348058 -2.894659 -20.321469
RightArm 10.582564 -7.992690 59.901480
RightForeArm -23.519131 -0.000000 14.277346
RightHand -15.524336 -0.000000 12.482575
RightHandThumb1 -24.326973 -0.000000 -32.862282
LeftUpLeg -3.171842 -2.902989 -1.642555
LeftLeg 7.156035 -0.000000 -0.000000
LeftFoot -21.415355 19.378222 -20.998723
LeftToeBase 9.523534 -0.000000 -0.000000
RightUpLeg 1.110052 -4.842836 -0.154244
RightLeg -2.011416 -0.000000 0.000000
RightFoot -16.343197 -16.452117 8.013388
RightToeBase 6.457448 -0.000000 -0.000000
142
root -6.618097 31.764166 -5.495301 4.311184 5.279118 2.595512
Spine -3.269284 -5.843872 -2.466335
Head 11.478680 9.763278 -2.024126
LeftShoulder -17.084279 15.071725 19.183671
LeftArm 16.064110 -37.565769 -44.417738
LeftForeArm -30.148345 -0.000000 19.846291
LeftHand -7.268770 -0.000000 18.524013
LeftHandThumb1 -26.253704 0.000000 33.147579
RightShoulder -12.351478 -2.889935 -20.019039
RightArm 10.196758 -8.106189 60.717966
RightForeArm -23.845308 0.000000 14.769471
RightHand -15.619937 -0.000000 12.288602
RightHandThumb1 -24.326973 -0.000000 -32.862282
LeftUpLeg -3.238579 -3.006379 -1.681370
LeftLeg 7.267264 -0.000000 -0.000000
LeftFoot -21.439413 19.365218 -21.078304
LeftToeBase 9.280147 -0.000000 -0.000000
RightUpLeg 1.080150 -4.995648 -0.193147
RightLeg -1.969533 -0.000000 0.000000
RightFoot -16.401793 -16.311471 8.045755
RightToeBase 6.414371 -0.000000 -0.000000
